<svg width="14" height="15" viewBox="0 0 14 15" fill="none" xmlns="http://www.w3.org/2000/svg">
<path d="M4.1709 2.1915C4.02507 2.33734 3.95215 2.51 3.95215 2.7095C3.95215 2.90862 4.02507 3.08109 4.1709 3.22692L8.44382 7.49984L4.15632 11.7873C4.0202 11.9234 3.95215 12.0936 3.95215 12.2978C3.95215 12.5019 4.02507 12.6769 4.1709 12.8228C4.31673 12.9686 4.4894 13.0415 4.6889 13.0415C4.88801 13.0415 5.06048 12.9686 5.20632 12.8228L10.1063 7.90817C10.1646 7.84984 10.2061 7.78664 10.2306 7.71859C10.2547 7.65053 10.2667 7.57762 10.2667 7.49984C10.2667 7.42206 10.2547 7.34914 10.2306 7.28109C10.2061 7.21303 10.1646 7.14984 10.1063 7.0915L5.19173 2.17692C5.05562 2.04081 4.88801 1.97275 4.6889 1.97275C4.4894 1.97275 4.31673 2.04567 4.1709 2.1915Z" fill="#181817"/>
</svg>
