<svg aria-hidden="true" style="position: absolute; width: 0; height: 0; overflow: hidden;" version="1.1" xmlns="http://www.w3.org/2000/svg" xmlns:xlink="http://www.w3.org/1999/xlink">
<defs>
<symbol id="icon-arrow-long" viewBox="0 0 84 32">
<path d="M82.414 17.414c0.781-0.781 0.781-2.047 0-2.828l-12.728-12.728c-0.781-0.781-2.047-0.781-2.828 0s-0.781 2.047 0 2.828l11.314 11.314-11.314 11.314c-0.781 0.781-0.781 2.047 0 2.828s2.047 0.781 2.828 0l12.728-12.728zM1 18h80v-4h-80v4z"></path>
</symbol>
<symbol id="icon-arrow-r" viewBox="0 0 21 32">
<path d="M3.132 1.845c-0.389 0.389-0.583 0.849-0.583 1.381 0 0.531 0.194 0.991 0.583 1.38l11.394 11.394-11.433 11.433c-0.363 0.363-0.544 0.817-0.544 1.361s0.194 1.011 0.583 1.4c0.389 0.389 0.849 0.583 1.381 0.583 0.531 0 0.991-0.194 1.38-0.583l13.067-13.106c0.156-0.156 0.266-0.324 0.331-0.506 0.064-0.181 0.096-0.376 0.096-0.583s-0.032-0.402-0.096-0.583c-0.065-0.181-0.176-0.35-0.331-0.506l-13.106-13.105c-0.363-0.363-0.81-0.545-1.341-0.545-0.532 0-0.992 0.194-1.381 0.583z"></path>
</symbol>
<symbol id="icon-arrow-l" viewBox="0 0 21 32">
<path d="M18.211 30.155c0.389-0.389 0.583-0.849 0.583-1.381 0-0.531-0.194-0.991-0.583-1.38l-11.394-11.394 11.433-11.433c0.363-0.363 0.544-0.817 0.544-1.361s-0.194-1.011-0.583-1.4c-0.389-0.389-0.849-0.583-1.381-0.583-0.531 0-0.991 0.194-1.38 0.583l-13.067 13.106c-0.156 0.156-0.266 0.324-0.331 0.506-0.064 0.181-0.096 0.376-0.096 0.583s0.032 0.402 0.096 0.583c0.065 0.181 0.176 0.35 0.331 0.506l13.106 13.105c0.363 0.363 0.81 0.545 1.341 0.545 0.532 0 0.992-0.194 1.381-0.583z"></path>
</symbol>
<symbol id="icon-arrow-slide-l" viewBox="0 0 34 32">
<path d="M0.586 17.414c-0.781-0.781-0.781-2.047 0-2.828l12.728-12.728c0.781-0.781 2.047-0.781 2.828 0s0.781 2.047 0 2.828l-11.314 11.314 11.314 11.314c0.781 0.781 0.781 2.047 0 2.828s-2.047 0.781-2.828 0l-12.728-12.728zM34 18h-32v-4h32v4z"></path>
</symbol>
<symbol id="icon-arrow-slide-r" viewBox="0 0 34 32">
<path d="M33.414 17.414c0.781-0.781 0.781-2.047 0-2.828l-12.728-12.728c-0.781-0.781-2.047-0.781-2.828 0s-0.781 2.047 0 2.828l11.314 11.314-11.314 11.314c-0.781 0.781-0.781 2.047 0 2.828s2.047 0.781 2.828 0l12.728-12.728zM-0 18h32v-4h-32v4z"></path>
</symbol>
<symbol id="icon-basket" viewBox="0 0 31 32">
<path d="M1.467 12.878h28.293v-2.081h-28.293v2.081zM29.142 12.26v0.914h2.081v-0.914h-2.081zM25.783 29.528h-20.338v2.081h20.338v-2.081zM2.085 13.174v-0.914h-2.081v0.914h2.081zM6.031 29.891c-2.595-5.19-3.946-10.914-3.946-16.717h-2.081c0 6.127 1.426 12.169 4.167 17.649l1.861-0.932zM5.444 29.528c0.25 0 0.477 0.142 0.587 0.362l-1.861 0.932c0.119 0.236 0.3 0.435 0.525 0.574s0.484 0.213 0.748 0.213v-2.081zM25.196 29.891c0.055-0.109 0.138-0.201 0.242-0.265s0.223-0.098 0.345-0.098v2.081c0.541 0 1.032-0.304 1.274-0.787l-1.861-0.932zM29.142 13.174c0 5.803-1.353 11.526-3.946 16.717l1.861 0.932c2.74-5.48 4.167-11.523 4.167-17.649h-2.081zM29.76 12.878c-0.164 0-0.321-0.065-0.437-0.181s-0.181-0.273-0.181-0.437h2.081c0-0.388-0.154-0.76-0.429-1.035s-0.647-0.429-1.035-0.429v2.081zM1.467 10.797c-0.388 0-0.76 0.154-1.035 0.429s-0.429 0.647-0.429 1.035h2.081c0 0.164-0.065 0.321-0.181 0.437s-0.273 0.181-0.437 0.181v-2.081zM8.181 12.372l6.244-10.406-1.788-1.070-6.244 10.407 1.788 1.070zM16.802 1.966l6.244 10.406 1.786-1.070-6.244-10.407-1.786 1.070zM10.41 21.203h10.406v-2.081h-10.406v2.081z"></path>
</symbol>
<symbol id="icon-bathing" viewBox="0 0 32 32">
<path d="M22.772 14.919c-0.2-0.463-0.549-1.030-1.247-1.493-0.399-0.257-1.945-0.463-1.995 0.978 0 0-0.648 0.103-0.599 0.566 0 0-0.399 1.39 1.496 1.236 0 0 0.349 2.625 0.648 3.192 0 0 0.15 0.515 0.2 1.030h0.798l0.050-1.030c0 0 0.449 0.309 0.798 1.030h1.147c-0.050-0.412-0.1-0.772-0.2-1.030 0 0 1.696 0 2.294-0.772 0 0 0.499 0.978 1.097 1.030v0.824h0.798c0.050-0.154 0.050-0.309 0.1-0.566 0 0 0.299 0.154 0.449 0.566h0.698c-0.1-0.36-0.998-3.707-1.297-3.964 0 0 0.449-0.051 0.599 0.515 0 0 0.249 1.184 0.748 1.133 0 0 0.349-0.772-0.249-1.75 0 0-0.249-0.721-1.546-0.618l-3.741-0.103c-0.499-0.103-0.848-0.412-1.047-0.772z"></path>
<path d="M18.233 10.955c0.299-0.412 0.249-1.030-0.15-1.39-0.399-0.309-0.998-0.257-1.347 0.154-0.948 1.236-2.644 1.441-3.841 0.927l-0.648 1.853c2.045 0.824 4.539 0.412 5.986-1.544z"></path>
<path d="M9.753 7.712c1.35 0 2.444-1.129 2.444-2.522s-1.094-2.523-2.444-2.523-2.444 1.129-2.444 2.523c0 1.393 1.094 2.522 2.444 2.522z"></path>
<path d="M11.2 20.994l-2.095-0.875 1.247-3.655c-2.793-1.596-3.791-4.118-3.841-4.273-0.299-0.772 0.050-1.596 0.798-1.905s1.546 0.051 1.846 0.824c0.050 0.103 0.648 1.441 2.195 2.523l0.948-2.677c0.1-0.309 0.050-0.618-0.15-0.875-1.796-2.059-3.891-2.831-6.185-2.111-0.648 0.206-1.097 0.721-1.247 1.39l-1.995 10.708c0 0.052 0 0.052 0 0.103s0 0.154 0 0.206l0.1 4.891-1.097-0.257c-0.748-0.154-1.546 0.36-1.696 1.133s0.349 1.596 1.097 1.75l2.843 0.618c0.449 0.103 0.848 0 1.197-0.309s0.549-0.721 0.499-1.184l-0.1-5.148 3.641 1.493v4.479c0 0.824 0.648 1.493 1.447 1.493s1.447-0.669 1.447-1.493v-5.457c0.050-0.618-0.349-1.133-0.898-1.39z"></path>
<path d="M15.041 15.382c-4.739-0.36-6.235-3.912-6.285-4.067-0.2-0.515-0.748-0.721-1.247-0.515s-0.698 0.772-0.499 1.287c0.1 0.206 1.995 4.839 7.931 5.302 0.549 0.051 0.998-0.36 0.998-0.927s-0.349-1.030-0.898-1.081z"></path>
<path d="M23.57 8.69c-0.998 0.206-1.746 1.133-1.746 2.214h4.439c0-1.184-0.848-2.111-1.945-2.265-1.496-1.699-3.891-1.030-5.786 0.669 0.1 0.103 0.2 0.257 0.299 0.412 1.347-1.287 3.192-2.162 4.739-1.030z"></path>
<path d="M31.152 20.891h-14.016c-0.399 0-0.748 0.36-0.748 0.772s0.349 0.772 0.748 0.772h0.15v1.287c0 2.008 1.596 3.655 3.542 3.655h6.734c1.945 0 3.541-1.647 3.541-3.655v-1.287h0.15c0.399 0 0.748-0.36 0.748-0.772-0.1-0.463-0.449-0.772-0.848-0.772z"></path>
<path d="M22.223 11.933l0.050-0.463c0-0.154-0.050-0.257-0.2-0.257s-0.249 0.052-0.249 0.206l-0.050 0.463c0 0.154 0.050 0.257 0.2 0.257 0.1 0 0.2-0.103 0.249-0.206z"></path>
<path d="M21.625 12.551l-0.050 0.463c0 0.154 0.050 0.257 0.2 0.257s0.249-0.052 0.249-0.206l0.050-0.463c0-0.154-0.050-0.257-0.2-0.257-0.1 0-0.2 0.103-0.249 0.206z"></path>
<path d="M23.321 12.139c0.15 0 0.249-0.103 0.249-0.257v-0.515c0-0.154-0.1-0.257-0.249-0.257s-0.249 0.103-0.249 0.257v0.515c0 0.103 0.15 0.257 0.249 0.257z"></path>
<path d="M23.021 13.066c0 0.154 0.1 0.257 0.249 0.257s0.249-0.103 0.249-0.257v-0.515c0-0.154-0.1-0.257-0.249-0.257s-0.249 0.103-0.249 0.257v0.515z"></path>
<path d="M24.668 11.161c-0.15 0-0.249 0.103-0.249 0.257v0.515c0 0.154 0.1 0.257 0.249 0.257s0.249-0.103 0.249-0.257v-0.515c0-0.154-0.1-0.257-0.249-0.257z"></path>
<path d="M24.518 12.602v0.515c0 0.154 0.1 0.257 0.249 0.257s0.249-0.103 0.249-0.257v-0.515c0-0.154-0.1-0.257-0.249-0.257-0.2 0-0.299 0.103-0.249 0.257z"></path>
<path d="M25.964 11.161c-0.15 0-0.2 0.154-0.2 0.257l0.050 0.463c0 0.103 0.1 0.206 0.249 0.206s0.249-0.154 0.249-0.309l-0.1-0.412c0-0.154-0.15-0.257-0.249-0.206z"></path>
<path d="M25.915 12.654l0.050 0.463c0 0.103 0.15 0.206 0.249 0.206 0.15 0 0.249-0.154 0.2-0.257v-0.515c0-0.154-0.15-0.206-0.249-0.206-0.15 0.051-0.249 0.154-0.249 0.309z"></path>
</symbol>
<symbol id="icon-bone" viewBox="0 0 73 32">
<path d="M72.673 13.749c0.834-1.892 0.379-4.677 0-6.753-0.295-1.765-1.027-3.222-2.124-4.502s-2.718-1.886-4.247-2.251c-1.214-0.314-3.038-0.336-4.247 0s-1.168 1.335-2.124 2.251c-2.383 2.173-5.455 2.326-8.494 2.251h-29.731c-3.039 0.076-6.112-0.078-8.494-2.251-0.956-0.916-0.914-1.915-2.124-2.251s-3.034-0.314-4.247 0c-1.529 0.365-3.151 0.971-4.247 2.251s-1.828 2.737-2.124 4.502c-0.38 2.076-0.834 4.861 0 6.753 0.302 0.681 2.124 1.486 2.124 2.251s-1.821 1.57-2.124 2.251c-0.832 1.892-0.378 4.677 0 6.753 0.296 1.766 1.028 3.22 2.124 4.502s2.718 1.882 4.247 2.251c1.214 0.313 3.038 0.336 4.247 0s1.168-1.335 2.124-2.251c2.382-2.176 5.454-2.322 8.494-2.251h29.731c3.040-0.071 6.113 0.075 8.494 2.251 0.956 0.916 0.914 1.915 2.124 2.251s3.034 0.313 4.247 0c1.529-0.369 3.151-0.969 4.247-2.251s1.828-2.736 2.124-4.502c0.378-2.076 0.832-4.861 0-6.753-0.302-0.681-2.124-1.486-2.124-2.251s1.822-1.57 2.124-2.251z"></path>
</symbol>
<symbol id="icon-close" viewBox="0 0 32 32" fill="transparent">
<path stroke="currentColor" stroke-linejoin="miter" stroke-linecap="round" stroke-miterlimit="4" stroke-width="3.5556" d="M1.778 1.778l14.222 14.222 14.222-14.222"></path>
<path  stroke="currentColor" stroke-linejoin="miter" stroke-linecap="round" stroke-miterlimit="4" stroke-width="3.5556" d="M1.778 30.222l14.222-14.222 14.222 14.222"></path>
</symbol>
<symbol id="icon-d-l" viewBox="0 0 39 32">
<path d="M14.863 22.22c-3.15-1.645-2.711-4.74-4.411-8.769-2.448-5.872-0.113-8.954 2.835-8.32 2.879 0.563 3.973 4.434 6.85 5.663 2.808 1.425 6.282-0.144 8.608 1.854 2.257 1.928 1.365 5.563-4.678 7.355-4.052 1.171-5.915 3.737-9.203 2.218z"></path>
<path d="M6.527 20.902c2.895-1.452 4.244-4.184 3.232-6.036s-4.419-1.971-7.246-0.449c-2.895 1.452-4.312 4.114-3.232 6.036s4.351 1.901 7.246 0.449z"></path>
<path d="M21.841 28.075c-0.818-3.141 0.222-5.781 2.296-6.065s4.536 2.257 5.219 5.386c0.818 3.141-0.222 5.781-2.296 6.065s-4.536-2.257-5.219-5.386z"></path>
<path d="M10.674 30.042c1.994-2.779 2.375-6.068 0.467-7.484s-5.11-0.27-7.104 2.509c-1.994 2.779-2.375 6.068-0.467 7.484s5.11 0.27 7.104-2.509z"></path>
<path d="M11.571 31.138c0.765-3.23 3.117-5.067 5.289-4.382s3.12 3.886 2.355 7.116c-0.765 3.23-3.117 5.067-5.289 4.382s-3.12-3.886-2.355-7.116z"></path>
</symbol>
<symbol id="icon-d-r" viewBox="0 0 33 32">
<path d="M17.34 16.558c1.808 2.111 0.588 4.231 0.65 7.651 0.068 4.976-2.525 6.534-4.48 5.216-1.927-1.247-1.594-4.376-3.325-6.106-1.624-1.852-4.603-1.724-5.71-3.852-1.078-2.057 0.628-4.437 5.538-3.978 3.283 0.329 5.383-0.991 7.327 1.069z"></path>
<path d="M23.010 19.942c-2.525 0.211-4.3 1.802-4.104 3.442s2.635 2.717 5.131 2.436c2.525-0.211 4.329-1.732 4.104-3.442s-2.606-2.647-5.131-2.436z"></path>
<path d="M13.979 10.276c-0.32 2.518-1.844 4.133-3.433 3.735s-2.636-2.959-2.222-5.43c0.32-2.518 1.844-4.133 3.433-3.735s2.636 2.959 2.222 5.43z"></path>
<path d="M22.66 12.098c-2.257 1.437-3.491 3.714-2.518 5.298s3.632 1.684 5.889 0.246c2.257-1.437 3.491-3.714 2.518-5.298s-3.632-1.684-5.889-0.246z"></path>
<path d="M22.327 11.041c-1.496 2.123-3.738 2.772-5.116 1.642s-1.134-3.73 0.362-5.852c1.496-2.122 3.738-2.772 5.116-1.642s1.134 3.73-0.362 5.852z"></path>
</symbol>
<symbol id="icon-facebook" viewBox="0 0 32 32">
<path d="M31.294 16c0-3.025-0.897-5.982-2.578-8.497s-4.069-4.475-6.864-5.633c-2.795-1.158-5.87-1.46-8.837-0.87s-5.692 2.047-7.831 4.186c-2.139 2.139-3.596 4.864-4.186 7.831s-0.287 6.042 0.87 8.837c1.158 2.795 3.118 5.183 5.633 6.864s5.472 2.578 8.497 2.578c4.055-0.004 7.943-1.616 10.81-4.484s4.48-6.755 4.484-10.81zM17.176 28.882v-9.353h3.529c0.312 0 0.611-0.124 0.832-0.345s0.345-0.52 0.345-0.832c0-0.312-0.124-0.611-0.345-0.832s-0.52-0.345-0.832-0.345h-3.529v-3.529c0-0.624 0.248-1.223 0.689-1.664s1.040-0.689 1.664-0.689h2.353c0.312 0 0.611-0.124 0.832-0.345s0.345-0.52 0.345-0.832c0-0.312-0.124-0.611-0.345-0.832s-0.52-0.345-0.832-0.345h-2.353c-1.247 0.004-2.442 0.501-3.323 1.383s-1.379 2.076-1.383 3.323v3.529h-3.529c-0.312 0-0.611 0.124-0.832 0.345s-0.345 0.52-0.345 0.832c0 0.312 0.124 0.611 0.345 0.832s0.52 0.345 0.832 0.345h3.529v9.353c-3.317-0.303-6.389-1.872-8.577-4.382s-3.326-5.767-3.174-9.094c0.152-3.327 1.58-6.467 3.988-8.768s5.61-3.585 8.94-3.585c3.33 0 6.532 1.284 8.94 3.585s3.836 5.441 3.988 8.768c0.152 3.327-0.985 6.584-3.174 9.094s-5.261 4.080-8.577 4.382z"></path>
</symbol>
<symbol id="icon-grooming" viewBox="0 0 32 32">
<path d="M21.1 9.363c-0.085-0.371-0.316-0.65-0.633-0.765-0.023-0.008-0.047-0.009-0.070-0.016 0.228-1.036 0.87-4.801-1.234-7.004-1.219-1.277-3.121-1.782-5.651-1.504-0.046-0.019-0.097-0.030-0.149-0.031-1.987-0.064-3.508 0.484-4.504 1.626-1.953 2.238-1.246 6.013-1.042 6.908-0.030 0.008-0.061 0.010-0.090 0.020-0.318 0.115-0.549 0.394-0.633 0.765-0.076 0.331-0.033 0.712 0.118 1.075 0.278 0.665 0.841 1.090 1.381 1.090 0.058 0 0.115-0.005 0.172-0.015 0.458 1.357 1.223 2.486 2.487 3.179v1.392h-0.656v3.925h7.002v-3.925h-0.657v-1.383c1.266-0.692 2.031-1.824 2.489-3.187 0.056 0.010 0.113 0.014 0.17 0.014 0.54 0 1.103-0.425 1.381-1.089 0.151-0.363 0.194-0.745 0.118-1.075zM7.814 10.22c-0.105-0.251-0.137-0.518-0.088-0.732 0.039-0.169 0.125-0.289 0.236-0.33 0.030-0.011 0.063-0.016 0.098-0.016 0.063 0 0.133 0.018 0.205 0.051 0.074 0.599 0.179 1.18 0.326 1.731-0.247-0.005-0.594-0.269-0.776-0.705zM17.312 16.684c-0.643 0.629-1.84 1.052-3.215 1.052s-2.573-0.424-3.215-1.052h0.694c0.178 0 0.323-0.135 0.323-0.301v-1.392c0.63 0.241 1.362 0.392 2.215 0.432 0.839-0.040 1.56-0.188 2.182-0.425v1.385c0 0.166 0.145 0.301 0.323 0.301h0.694zM19.296 8.874c-0.021 0.185-0.043 0.37-0.069 0.547-0.067 0.453-0.153 0.88-0.258 1.284-0.040 0.152-0.084 0.299-0.13 0.444-0.396 1.263-1.020 2.247-1.984 2.876-0.142 0.093-0.296 0.174-0.454 0.251-0.633 0.312-1.384 0.503-2.289 0.546-0.902-0.043-1.653-0.23-2.287-0.537-0.168-0.081-0.331-0.168-0.483-0.267-0.966-0.63-1.591-1.612-1.988-2.872-0.046-0.145-0.090-0.291-0.13-0.444-0.105-0.403-0.191-0.829-0.258-1.281-0.027-0.178-0.048-0.362-0.069-0.547-0.057-0.495-0.098-1.013-0.122-1.556 0.076-0.441 0.186-0.807 0.318-1.107 0.199-0.031 0.628-0.118 1.133-0.334 0.080 0.102 0.215 0.167 0.353 0.158 0.072-0.003 1.024-0.054 2.030-0.421-0.005 0.042-0.002 0.086 0.009 0.129 0.043 0.168 0.203 0.288 0.389 0.292 0.086 0.003 1.797 0.022 2.853-1.101 0.407 0.908 1.322 2.395 3.187 3.328l0.278 0.357c-0.009 0.087-0.020 0.17-0.030 0.256zM20.379 10.22c-0.182 0.435-0.527 0.699-0.774 0.704 0.146-0.552 0.25-1.132 0.324-1.731 0.072-0.033 0.142-0.050 0.205-0.050 0.035 0 0.068 0.005 0.098 0.016 0.152 0.055 0.213 0.23 0.236 0.33 0.049 0.214 0.016 0.481-0.089 0.732zM13.364 11.002v-0.843c0-0.166 0.145-0.301 0.323-0.301s0.323 0.135 0.323 0.301v0.775h0.497c0.178 0 0.323 0.135 0.323 0.301s-0.145 0.301-0.323 0.301h-0.57c-0.316 0-0.573-0.239-0.573-0.533zM11.819 9.069c0 0.323-0.282 0.585-0.629 0.585s-0.629-0.262-0.629-0.585c0-0.323 0.282-0.585 0.629-0.585s0.629 0.262 0.629 0.585zM17.633 9.069c0 0.323-0.282 0.585-0.629 0.585s-0.629-0.262-0.629-0.585c0-0.323 0.282-0.585 0.629-0.585s0.629 0.262 0.629 0.585zM15.679 12.854c0 0.485-0.817 0.658-1.582 0.658s-1.582-0.173-1.582-0.658c0-0.166 0.145-0.301 0.323-0.301 0.144 0 0.266 0.088 0.308 0.209 0.108 0.060 0.448 0.149 0.951 0.149s0.843-0.089 0.951-0.149c0.042-0.121 0.164-0.209 0.308-0.209 0.178 0 0.323 0.135 0.323 0.301zM31.891 22.231c-0.093-0.152-0.237-0.265-0.409-0.331 0.027-0.165 0-0.339-0.095-0.496-0.093-0.152-0.237-0.265-0.409-0.33 0.027-0.165 0-0.339-0.095-0.496s-0.243-0.267-0.409-0.33c0.027-0.165 0.001-0.34-0.095-0.496-0.11-0.18-0.288-0.308-0.502-0.363-0.212-0.054-0.437-0.029-0.63 0.073l-0.328 0.173c-0.062-0.095-0.145-0.18-0.246-0.252v-0.329h1.831c0.178 0 0.323-0.135 0.323-0.301s-0.145-0.301-0.323-0.301h-1.831v-0.301h1.831c0.178 0 0.323-0.135 0.323-0.301s-0.145-0.301-0.323-0.301h-1.831v-0.301h1.831c0.178 0 0.323-0.135 0.323-0.301s-0.145-0.301-0.323-0.301h-1.831v-0.301h1.831c0.178 0 0.323-0.135 0.323-0.301s-0.145-0.301-0.323-0.301h-1.831l0.002-0.301h1.829c0.178 0 0.323-0.135 0.323-0.301s-0.145-0.301-0.323-0.301h-1.829c-0.364 0-0.648 0.308-0.648 0.701v1.448c-0.028-0.342-0.164-0.685-0.404-0.98-0.59-0.728-1.602-0.947-2.253-0.489-0.34 0.239-0.512 0.615-0.519 1.023-0.424-0.105-0.861-0.054-1.2 0.184-0.327 0.23-0.519 0.603-0.526 1.023-0.006 0.389 0.141 0.789 0.415 1.127s0.648 0.579 1.052 0.68c0.135 0.034 0.27 0.050 0.402 0.050 0.295 0 0.573-0.082 0.799-0.241 0.021-0.015 0.037-0.035 0.057-0.051l1.014 1.131-0.366 0.734c-0.028 0.045-0.053 0.091-0.076 0.139l-2.131 1.125-3.636-5.555c-0.089-0.136-0.198-0.253-0.314-0.36-0.192-0.231-0.47-0.396-0.793-0.449-0.314-0.097-0.648-0.128-0.98-0.076v4.029c0.079 0.023 0.152 0.056 0.216 0.101 0.119 0.083 0.206 0.2 0.242 0.338l1.59 6.197v-2.518l1.211 1.851c0.385 0.588 1.058 0.914 1.75 0.914 0.343 0 0.69-0.080 1.008-0.249l3.88-2.048c0.016-0.008 0.028-0.020 0.044-0.029 0.030 0.002 0.061 0.006 0.091 0.006 0.252 0 0.508-0.059 0.743-0.183l0.729-0.385 0.045 0.050c0.147 0.164 0.407 0.192 0.591 0.063l0.407-0.286c0.134-0.094 0.185-0.254 0.148-0.409l0.317-0.168c0.193-0.102 0.331-0.267 0.39-0.467s0.031-0.407-0.079-0.586zM30.011 20.843l0.059-0.031c0.028-0.014 0.059-0.022 0.090-0.022 0.016 0 0.033 0.002 0.049 0.006 0.048 0.012 0.087 0.041 0.111 0.080 0.050 0.082 0.019 0.187-0.069 0.233l-0.846 0.447c-0.043 0.022-0.092 0.027-0.139 0.016s-0.087-0.041-0.111-0.080c-0.050-0.082-0.019-0.187 0.069-0.233l0.787-0.416zM28.973 20.375l0.008-0.016c0.006-0.012 0.008-0.025 0.013-0.037 0.006-0.014 0.010-0.028 0.015-0.043l0.556-0.294c0.028-0.015 0.059-0.022 0.090-0.022 0.016 0 0.033 0.002 0.049 0.006 0.048 0.012 0.087 0.041 0.111 0.080 0.031 0.051 0.028 0.11 0.002 0.159-0.016 0.030-0.038 0.057-0.071 0.075l-0.846 0.447c-0.035 0.018-0.075 0.022-0.115 0.018l0.187-0.373zM25.273 18.735c-0.156 0.109-0.355 0.082-0.46 0.056-0.216-0.054-0.43-0.196-0.587-0.389s-0.244-0.423-0.241-0.632c0.002-0.101 0.028-0.286 0.184-0.396 0.078-0.055 0.175-0.081 0.279-0.081 0.253 0 0.555 0.152 0.767 0.413 0.299 0.369 0.325 0.839 0.058 1.027zM25.946 17.194c-0.299-0.368-0.325-0.839-0.057-1.027 0.078-0.055 0.174-0.081 0.279-0.081 0.253 0 0.555 0.153 0.767 0.414 0.157 0.193 0.245 0.423 0.242 0.631-0.002 0.101-0.028 0.286-0.184 0.396s-0.355 0.082-0.459 0.056c-0.216-0.054-0.43-0.196-0.587-0.389zM26.778 19.61c-0.147-0.182-0.109-0.44 0.087-0.577s0.473-0.101 0.62 0.081c0.052 0.064 0.072 0.137 0.080 0.21-0.121 0.073-0.223 0.172-0.287 0.298l-0.070 0.141c-0.158 0.026-0.326-0.025-0.43-0.153zM29.319 23.741l-0.296 0.156c-0.413 0.219-0.942 0.083-1.177-0.301l-0.799-1.308c-0.114-0.187-0.143-0.403-0.082-0.61l0.004-0.007 0.896-1.795c0.023-0.045 0.085-0.075 0.162-0.081 0.057-0.005 0.121 0.001 0.187 0.030s0.113 0.071 0.145 0.114c0.007 0.010 0.016 0.019 0.021 0.029 0.027 0.050 0.034 0.1 0.015 0.138l-0.793 1.584c-0.013 0.025-0.015 0.052-0.020 0.078-0.023 0.13 0.042 0.263 0.177 0.322 0.044 0.019 0.090 0.028 0.136 0.028s0.090-0.012 0.132-0.029v1.428c0 0.166 0.145 0.301 0.323 0.301s0.323-0.135 0.323-0.301v-1.043l0.979 1.092-0.333 0.176zM29.91 22.382c-0.043 0.022-0.093 0.029-0.139 0.016s-0.087-0.041-0.111-0.080c-0.050-0.082-0.019-0.187 0.069-0.233l0.846-0.447c0.028-0.015 0.059-0.022 0.090-0.022 0.016 0 0.033 0.002 0.049 0.006 0.047 0.012 0.087 0.041 0.111 0.080 0.050 0.082 0.019 0.187-0.069 0.233l-0.846 0.447zM31.347 22.658c-0.013 0.044-0.044 0.081-0.086 0.103 0 0 0 0-0 0l-0.845 0.447c-0.038 0.021-0.081 0.024-0.122 0.018-0.052-0.009-0.101-0.036-0.129-0.082-0.050-0.082-0.019-0.187 0.069-0.233l0.846-0.447c0.028-0.014 0.059-0.022 0.090-0.022 0.005 0 0.010 0.002 0.015 0.002 0.011 0.001 0.023 0.002 0.034 0.004 0.048 0.012 0.087 0.041 0.111 0.081s0.030 0.085 0.017 0.13zM20.551 31.361l-0.18-3.894c-0.001-0.010-0.002-0.020-0.005-0.031l-1.761-6.865c-0.006-0.026-0.020-0.049-0.038-0.070-0.048-0.057-0.131-0.094-0.224-0.094h-8.492c-0.093 0-0.176 0.037-0.224 0.094-0.018 0.021-0.032 0.044-0.038 0.070l-1.546 6.030-0.241-0.126c-0.051-0.026-0.102-0.047-0.152-0.068l1.52-5.928c0.035-0.138 0.123-0.255 0.242-0.338 0.064-0.044 0.137-0.078 0.215-0.1v-4.014c-0.754-0.227-1.614-0.035-2.17 0.555l-6.948 7.366c-0.385 0.409-0.565 0.951-0.493 1.49s0.389 1.025 0.87 1.333l3.986 2.555c0.124 0.080 0.256 0.14 0.391 0.191 0.163 0.174 0.357 0.323 0.577 0.437l1.815 0.941c0.004 0.002 0.008 0.002 0.011 0.004l-0.022 0.464-0.020 0.431c-0.003 0.059 0.029 0.102 0.056 0.128 0.051 0.050 0.129 0.079 0.211 0.079h12.414c0.083 0 0.16-0.029 0.212-0.079 0.027-0.026 0.058-0.070 0.056-0.128l-0.020-0.431zM5.103 24.849l2.477-2.625v4.154c-0.081-0.031-0.163-0.055-0.244-0.076-0.048-0.037-0.089-0.078-0.141-0.112l-2.091-1.341zM9.953 28.41c-0.029 0.049-0.098 0.067-0.15 0.040-0 0-0 0-0 0l-1.469-0.761c-0.081-0.042-0.177-0.040-0.264-0.008-0.079 0.028-0.149 0.080-0.191 0.149s-0.053 0.152-0.029 0.229c0.023 0.077 0.079 0.142 0.154 0.181l0.001 0.001 1.759 0.912c0.034 0.018 0.047 0.046 0.052 0.061s0.010 0.046-0.009 0.078c-0.019 0.032-0.049 0.043-0.066 0.048s-0.050 0.009-0.084-0.009l-1.76-0.913c-0.036-0.018-0.075-0.027-0.114-0.030-0.070-0.005-0.14 0.015-0.203 0.049-0.006 0.003-0.012 0.006-0.018 0.009-0.048 0.030-0.092 0.066-0.12 0.112-0.042 0.070-0.052 0.152-0.029 0.229 0.020 0.066 0.067 0.119 0.126 0.159 0.010 0.007 0.017 0.016 0.028 0.022l1.469 0.761c0.034 0.018 0.047 0.046 0.052 0.062s0.010 0.045-0.009 0.078c-0.019 0.032-0.049 0.044-0.066 0.048s-0.049 0.009-0.084-0.009l-1.633-0.846c-0.102-0.053-0.259-0.032-0.359 0.025-0.097 0.056-0.155 0.156-0.152 0.262 0.002 0.056 0.022 0.108 0.053 0.154 0.028 0.041 0.066 0.077 0.113 0.101l1.125 0.583c0.034 0.018 0.047 0.046 0.052 0.061s0.010 0.046-0.009 0.078c-0.029 0.049-0.098 0.068-0.15 0.040l-1.815-0.941c-0.301-0.156-0.538-0.405-0.667-0.702-0.175-0.402-0.155-0.841 0.053-1.175 0.253-0.406 0.74-0.707 1.282-0.707 0.22 0 0.448 0.051 0.674 0.162 0.006 0.003 0.013 0.005 0.020 0.009l2.395 1.256c0.034 0.018 0.047 0.047 0.052 0.062s0.010 0.046-0.009 0.077zM17.943 26.919c-0.009 0.528-0.557 0.759-0.836 0.351l-0.281-0.41c-0.075 0.243-0.188 0.471-0.336 0.679 0.001 0.032 0.005 0.064 0.005 0.097 0 1.363-1.073 2.468-2.398 2.468s-2.398-1.105-2.398-2.468c0-0.033 0.003-0.064 0.005-0.097-0.147-0.208-0.261-0.436-0.336-0.679l-0.281 0.41c-0.279 0.408-0.827 0.177-0.837-0.351-0.004-0.247-0.014-0.503-0.031-0.754-0.061-0.881 1.229-1.295 1.81-1.436 0.517-0.346 1.251-0.501 2.068-0.501s1.551 0.156 2.068 0.501c0.581 0.141 1.871 0.555 1.81 1.436-0.018 0.251-0.027 0.507-0.032 0.754zM13.114 28.749c0-0.371 0.44-0.672 0.983-0.672s0.983 0.301 0.983 0.672c0 0.371-0.44 0.672-0.983 0.672s-0.983-0.301-0.983-0.672z"></path>
</symbol>
<symbol id="icon-instagram" viewBox="0 0 32 32" fill="transparent">
<path stroke="currentColor" stroke-linejoin="round" stroke-linecap="round" stroke-miterlimit="4" stroke-width="2.4706" d="M16 22.275c1.664 0 3.26-0.661 4.437-1.838s1.838-2.773 1.838-4.437c0-1.664-0.661-3.26-1.838-4.437s-2.773-1.838-4.437-1.838-3.26 0.661-4.437 1.838c-1.177 1.177-1.838 2.773-1.838 4.437s0.661 3.26 1.838 4.437c1.177 1.177 2.773 1.838 4.437 1.838z"></path>
<path stroke="currentColor" stroke-linejoin="miter" stroke-linecap="butt" stroke-miterlimit="4" stroke-width="2.4706" d="M1.882 22.275v-12.549c0-2.080 0.826-4.075 2.297-5.546s3.466-2.297 5.546-2.297h12.549c2.080 0 4.075 0.826 5.546 2.297s2.297 3.466 2.297 5.546v12.549c0 2.080-0.826 4.075-2.297 5.546s-3.466 2.297-5.546 2.297h-12.549c-2.080 0-4.075-0.826-5.546-2.297s-2.297-3.466-2.297-5.546z"></path>
<path stroke="currentColor" stroke-linejoin="round" stroke-linecap="round" stroke-miterlimit="4" stroke-width="2.4706" d="M24.627 7.389l0.016-0.018"></path>
</symbol>
<symbol id="icon-logo" viewBox="0 0 135 32">
<path fill="#fcb62a" style="fill: var(--color1, #fcb62a)" d="M15.558 18.557c0.181 3.691 2.861 4.162 5.358 7.263 3.695 4.434 6.668 3.117 7.173-0.081 0.477-3.073-2.121-5.266-2.292-8.55s2.271-6.254 1.525-9.188c-0.746-2.934-3.823-3.4-7.096 1.989-2.21 3.718-4.757 4.905-4.668 8.566z"></path>
<path fill="#ff9f0e" style="fill: var(--color2, #ff9f0e)" d="M9.971 9.458c2.092 1.699 4.582 1.093 5.468-0.778s-0.185-5.15-2.303-6.731c-2.092-1.699-4.582-1.093-5.468 0.778-0.86 1.752 0.211 5.032 2.303 6.731z"></path>
<path fill="#fcb62a" style="fill: var(--color1, #fcb62a)" d="M4.798 18.931c2.467 0.132 4.711-1.56 4.987-4.028 0.248-2.343-1.527-4.403-4.077-4.562-2.467-0.132-4.712 1.56-4.987 4.028-0.248 2.343 1.61 4.43 4.077 4.562z"></path>
<path fill="#fa0" style="fill: var(--color3, #fa0)" d="M5.972 30.71c2.242 0.049 4.481-1.872 4.788-4.366 0.279-2.367-1.157-5.012-3.474-5.085-2.242-0.049-4.481 1.872-4.788 4.366-0.279 2.367 1.232 5.037 3.474 5.085z"></path>
<path fill="#ff9f0e" style="fill: var(--color2, #ff9f0e)" d="M35.397 24.93v-13.026l-0.476-2.381 0.476-1.453h7.097c1.143 0 2.239 0.111 3.286 0.333 1.064 0.206 2.008 0.603 2.834 1.191 0.841 0.587 1.5 1.429 1.977 2.524 0.492 1.095 0.738 2.516 0.738 4.263s-0.246 3.183-0.738 4.31c-0.492 1.111-1.159 1.977-2 2.596s-1.794 1.048-2.858 1.286c-1.048 0.238-2.127 0.357-3.239 0.357h-7.097zM39.731 21.12h2.762c1.397 0 2.469-0.365 3.215-1.095 0.746-0.746 1.119-1.961 1.119-3.644s-0.381-2.85-1.143-3.501c-0.746-0.667-1.81-1-3.191-1h-2.762v9.24zM61.308 25.168c-1.016 0-2.008-0.119-2.977-0.357-0.953-0.254-1.818-0.699-2.596-1.334-0.762-0.635-1.373-1.516-1.834-2.643-0.445-1.127-0.667-2.572-0.667-4.334s0.222-3.207 0.667-4.334c0.46-1.127 1.072-2.008 1.834-2.643 0.778-0.635 1.643-1.072 2.596-1.31 0.968-0.254 1.961-0.381 2.977-0.381s2 0.127 2.953 0.381c0.968 0.254 1.834 0.699 2.596 1.334 0.778 0.635 1.389 1.516 1.834 2.643 0.46 1.127 0.691 2.564 0.691 4.31s-0.23 3.183-0.691 4.31c-0.445 1.127-1.056 2.008-1.834 2.643-0.762 0.635-1.627 1.080-2.596 1.334-0.953 0.254-1.937 0.381-2.953 0.381zM61.308 21.12c1.175 0 2.064-0.349 2.667-1.048s0.905-1.889 0.905-3.572-0.302-2.874-0.905-3.572c-0.603-0.699-1.492-1.048-2.667-1.048-1.159 0-2.040 0.357-2.643 1.072s-0.905 1.897-0.905 3.548 0.302 2.834 0.905 3.548c0.603 0.714 1.484 1.072 2.643 1.072zM80.307 25.168c-1.223 0-2.381-0.119-3.477-0.357-1.080-0.254-2.041-0.699-2.882-1.334-0.826-0.635-1.476-1.516-1.953-2.643s-0.714-2.572-0.714-4.334c0-1.699 0.254-3.104 0.762-4.215 0.508-1.127 1.183-2.016 2.024-2.667 0.857-0.651 1.802-1.111 2.834-1.381 1.048-0.27 2.103-0.405 3.167-0.405 0.778 0 1.453 0.040 2.024 0.119s1.119 0.183 1.643 0.31l3.239 1.881-1.667 3.691-5.263-1.857c-0.762 0-1.469 0.151-2.119 0.452-0.636 0.302-1.151 0.786-1.548 1.453-0.381 0.651-0.572 1.532-0.572 2.643 0 1.794 0.397 3.056 1.191 3.786 0.81 0.714 1.913 1.072 3.31 1.072 0.714 0 1.27-0.032 1.667-0.095 0.412-0.079 0.73-0.143 0.953-0.191v-1.81h-3.024v-3.524h7.573l0.262 1.429-0.524 1.977v5.001c-0.175 0.063-0.572 0.175-1.191 0.333-0.604 0.159-1.398 0.31-2.381 0.452-0.969 0.143-2.080 0.214-3.334 0.214zM95.506 25.109c-0.703 0-1.411-0.101-2.125-0.304-0.703-0.202-1.351-0.542-1.947-1.018-0.583-0.488-1.054-1.149-1.411-1.982-0.357-0.845-0.536-1.911-0.536-3.197 0-1.298 0.25-2.429 0.75-3.393 0.512-0.976 1.209-1.738 2.090-2.286s1.881-0.822 3.001-0.822c0.536 0 1.048 0.048 1.536 0.143 0.5 0.095 0.881 0.202 1.143 0.322l1.983 1.804-1.25 1.875-3.054-1.572c-0.667 0-1.268 0.161-1.804 0.482s-0.964 0.78-1.286 1.375c-0.31 0.583-0.464 1.274-0.464 2.072 0 0.917 0.161 1.673 0.482 2.268 0.333 0.595 0.786 1.042 1.357 1.34 0.572 0.286 1.209 0.429 1.911 0.429 0.714 0 1.328-0.060 1.84-0.179 0.512-0.131 0.941-0.274 1.286-0.429 0.345-0.167 0.607-0.31 0.786-0.429v2.429c-0.333 0.226-0.845 0.464-1.536 0.714-0.679 0.238-1.596 0.357-2.751 0.357zM102.061 24.93l-0.357-1.072 0.357-1.786v-9.788h2.5v7.341l-0.179 2.983h0.357l3.911-0.179 1.268-0.179 1.215 1.536-0.875 1.143h-8.198zM116.707 25.109c-1.226 0-2.191-0.202-2.893-0.607-0.691-0.405-1.185-1-1.482-1.786-0.286-0.798-0.429-1.768-0.429-2.911v-4.644l0.018-1.804-0.018-1.072h2.536v7.698c0 0.834 0.167 1.512 0.5 2.036 0.333 0.512 0.923 0.768 1.768 0.768s1.441-0.238 1.786-0.714c0.357-0.488 0.536-1.185 0.536-2.090v-7.698h2.483v7.519c0 1.119-0.143 2.078-0.429 2.876-0.274 0.786-0.762 1.387-1.465 1.804-0.691 0.417-1.661 0.625-2.911 0.625zM123.828 24.93v-9.788l-0.357-1.786 0.357-1.072h4.644c0.905 0 1.685 0.107 2.34 0.322 0.667 0.202 1.185 0.536 1.554 1s0.554 1.084 0.554 1.857c0 0.476-0.083 0.929-0.25 1.357-0.155 0.417-0.423 0.768-0.804 1.054 0.75 0.262 1.322 0.655 1.715 1.179s0.589 1.22 0.589 2.090c0 1.322-0.369 2.286-1.107 2.893-0.738 0.595-1.852 0.893-3.34 0.893h-5.894zM126.329 17.375h2.465c1 0 1.5-0.441 1.5-1.322 0-0.441-0.101-0.792-0.304-1.054s-0.601-0.393-1.197-0.393h-2.465v2.768zM126.329 22.608h3.215c0.631 0 1.089-0.143 1.375-0.429 0.298-0.286 0.446-0.685 0.446-1.197 0-0.488-0.161-0.857-0.482-1.107-0.31-0.25-0.816-0.375-1.518-0.375h-3.036v3.108z"></path>
</symbol>
<symbol id="icon-nutrition" viewBox="0 0 32 32">
<path d="M22.415 19.13c-0.748-0.148-1.489 0.341-1.801 1.188-0.061 0.164-0.102 0.334-0.126 0.507 0.772-0.462 1.447-1.018 2.030-1.674l-0.103-0.020z"></path>
<path d="M23.109 10.926c1.403-1.12 1.801-3.423 0.888-5.144s-2.791-2.208-4.194-1.088c-1.403 1.12-1.801 3.423-0.888 5.144s2.791 2.208 4.194 1.088z"></path>
<path d="M28.673 11.865c-1.311-1.991-3.092-2.014-4.075-1.202s-0.911 2.874-0.090 4.259c0.037 0.076 0.077 0.156 0.116 0.235 0.283-1.053 0.323-1.818 0.323-1.828 0.029-0.893 0.62-1.591 1.345-1.591 0.017 0 0.034 0 0.051 0.001 0.742 0.033 1.324 0.801 1.297 1.712v0.003l-0.001 0.015c-0.022 0.51-0.164 2.343-1.067 4.522-0.082 0.2-0.179 0.419-0.29 0.651 0.189 0.443 0.371 0.896 0.537 1.356l-1.149-0.226c-0.777 1.277-1.967 2.726-3.738 3.861l5.138 5.216c0.314 0.319 0.695 0.475 1.073 0.475 0.484 0 0.965-0.255 1.298-0.748 0.593-0.879 0.493-2.181-0.224-2.909l-1.236-1.255 0.4 0.079c0.124 0.024 0.246 0.030 0.367 0.022 0.29 0.017 0.632-0.107 1.051-0.287 1.166-0.498 2.488-1.377 2.144-4.055-0.694-3.597-1.482-5.555-3.271-8.306z"></path>
<path d="M26.332 17.84c0.97-2.342 1.033-4.28 1.039-4.402 0.022-0.73-0.442-1.343-1.037-1.37s-1.093 0.541-1.117 1.269l-0-0c-0.002 0.084-0.092 1.678-0.879 3.475-0.796 1.799-2.226 3.82-5.122 5.003-0.565 0.229-0.873 0.976-0.686 1.67 0.149 0.556 0.571 0.908 1.024 0.908 0.112 0 0.226-0.022 0.338-0.067 3.541-1.421 5.48-4.147 6.441-6.486z"></path>
<path d="M12.134 24.129c0.49 0.114 1.080 0.302 1.236 0.505 0.42 0.543 0.625 1.665 1.169 1.744 0.38 0.055 0.514 0.045 0.985-0.328 0.465-0.369 0.023-1.805-0.088-2.357-0.157-0.783 0.218-1.643 0.224-1.696 0.005-0.044 0.328-0.875 1.262-0.559 0.326 0.111 0.135-0.629-0.376-0.999-0.608-0.439-1.047-0.234-1.492 0.193-0.858-0.805-2.202-0.648-2.966-0.297-0.122 0.61-0.169 1.201-0.169 1.744-0 0.826 0.107 1.542 0.215 2.050zM14.312 22.392c0.2-0.167 0.472-0.104 0.609 0.141s0.084 0.579-0.115 0.746c-0.2 0.167-0.472 0.104-0.609-0.141s-0.085-0.579 0.115-0.746z"></path>
<path d="M11.538 20.316c-0.199 0.003-0.388-0.004-0.569-0.021-0.063-0.019-0.129-0.031-0.197-0.027-0.004 0-0.008 0.002-0.012 0.002-2.749-0.383-3.497-2.933-6.708-0.287-0.97-0.35-2.126-1.101-3.002-2.705-0.177-0.322-0.533-0.407-0.796-0.19-0.263 0.217-0.333 0.654-0.155 0.976 0.833 1.51 1.863 2.395 2.829 2.913-0.011 0.029-0.023 0.064-0.035 0.097-0.248 0.457-0.442 1.059-0.568 1.861-0.018 0.117-0.804 6.273 0.431 6.273s1.574-4.656 2.264-5.253c0.097 0.011 1.929 2.365 3.494 2.069 0.367-0.070 0.863-0.347 1.277-0.643l0.677 3.324c0.076 0.373 0.348 0.626 0.653 0.626 0.033 0 0.067-0.003 0.101-0.009 0.344-0.063 0.591-0.434 0.573-0.86l-0.176-4.139c-0.118-0.552-0.238-1.333-0.238-2.246 0-0.549 0.044-1.144 0.158-1.763z"></path>
<path d="M17.55 28.446h-0.17l-0.347-1.319h-3.889l-0.347 1.319h-0.17c-0.137 0-0.248 0.136-0.248 0.305s0.111 0.304 0.248 0.304h4.923c0.137 0 0.248-0.136 0.248-0.304s-0.111-0.305-0.248-0.305z"></path>
</symbol>
<symbol id="icon-star" viewBox="0 0 34 32">
<path d="M17.067 0l3.832 11.793h12.4l-10.032 7.288 3.832 11.793-10.032-7.288-10.032 7.288 3.832-11.793-10.032-7.288h12.4l3.832-11.793z"></path>
</symbol>
<symbol id="icon-t-l" viewBox="0 0 31 32">
<path d="M15.738 15.181c1.789-1.875 3.869-0.943 7.036-1.321 4.609-0.53 6.297 1.729 5.259 3.667-0.976 1.904-3.91 1.889-5.352 3.657-1.566 1.68-1.168 4.432-3.038 5.658-1.807 1.192-4.174-0.167-4.21-4.764-0.002-3.076-1.424-4.9 0.304-6.897z"></path>
<path d="M18.345 9.605c0.433 2.322 2.075 3.819 3.577 3.484s2.273-2.699 1.778-4.988c-0.433-2.322-2.012-3.853-3.577-3.484s-2.211 2.665-1.778 4.987z"></path>
<path d="M10.226 18.889c2.366 0.061 4.007 1.323 3.786 2.834s-2.497 2.723-4.828 2.57c-2.366-0.061-4.007-1.323-3.786-2.834s2.497-2.723 4.828-2.57z"></path>
<path d="M11.102 10.665c1.545 1.959 3.773 2.89 5.15 1.838s1.221-3.527-0.324-5.485c-1.545-1.959-3.773-2.89-5.15-1.838s-1.221 3.527 0.324 5.485z"></path>
<path d="M10.153 11.073c2.109 1.188 2.922 3.208 2.003 4.591s-3.353 1.402-5.462 0.213c-2.109-1.188-2.922-3.208-2.003-4.591s3.353-1.402 5.462-0.213z"></path>
</symbol>
<symbol id="icon-t-r" viewBox="0 0 33 32">
<path d="M17.34 16.558c1.808 2.111 0.588 4.231 0.65 7.651 0.068 4.976-2.525 6.534-4.48 5.216-1.927-1.247-1.594-4.376-3.325-6.106-1.624-1.852-4.603-1.724-5.71-3.852-1.078-2.057 0.628-4.437 5.538-3.978 3.283 0.329 5.383-0.991 7.327 1.069z"></path>
<path d="M23.010 19.942c-2.525 0.211-4.3 1.802-4.104 3.442s2.635 2.717 5.131 2.436c2.525-0.211 4.329-1.732 4.104-3.442s-2.606-2.647-5.131-2.436z"></path>
<path d="M13.979 10.276c-0.32 2.518-1.844 4.133-3.433 3.735s-2.636-2.959-2.222-5.43c0.32-2.518 1.844-4.133 3.433-3.735s2.636 2.959 2.222 5.43z"></path>
<path d="M22.66 12.098c-2.257 1.437-3.491 3.714-2.518 5.298s3.632 1.684 5.889 0.246c2.257-1.437 3.491-3.714 2.518-5.298s-3.632-1.684-5.889-0.246z"></path>
<path d="M22.327 11.041c-1.496 2.123-3.738 2.772-5.116 1.642s-1.134-3.73 0.362-5.852c1.496-2.123 3.738-2.772 5.116-1.642s1.134 3.73-0.362 5.852z"></path>
</symbol>
<symbol id="icon-training" viewBox="0 0 32 32">
<path d="M6.231 25.595l1.154-3.878-0.42-1.144c-0.891-0.149-1.626-0.597-2.098-1.193l-1.573 5.221-3.094 5.221c-0.42 0.696-0.157 1.591 0.577 1.989s1.678 0.149 2.098-0.547l3.251-5.37c0.052-0.099 0.105-0.199 0.105-0.298z"></path>
<path d="M1.090 14.764c0.483 0.253 1.126 0.051 1.394-0.456l2.413-4.658 0.429-0.304 0.215-1.266c0.107-0.658 0.429-1.266 0.858-1.772l-2.896 1.772c-0.161 0.101-0.268 0.253-0.375 0.405l-2.521 4.911c-0.268 0.506-0.054 1.114 0.483 1.367z"></path>
<path d="M10.338 5.408c1.631 0 2.954-1.211 2.954-2.704s-1.322-2.704-2.954-2.704c-1.631 0-2.954 1.211-2.954 2.704s1.322 2.704 2.954 2.704z"></path>
<path d="M28.969 25.591c0 0 0.052 0.050 0.052 0.1 0.418-0.249 0.575-0.797 0.575-0.797 1.569 0.448 1.883-0.946 1.883-0.946 0.209-0.398-0.837-0.797-0.837-0.797-0.052-0.996-1.255-1.295-1.255-1.295-0.575-0.498-0.418 0-0.418 0-0.575-0.050-0.942 0.149-0.942 0.149-0.942-0.847-1.517 0.448-1.517 0.448-0.157 0-0.262 0.050-0.418 0.050 0.942 1.195 1.935 2.241 2.877 3.088z"></path>
<path d="M30.429 28.782c-0.272-0.252-2.227-1.362-2.227-1.362 0.435-0.202 0.489-1.059 0.489-1.362-1.032-0.908-2.119-2.068-3.205-3.379-0.543 0.101-4.129 1.513-7.606 0.050-1.304-0.555-2.445 0.252-2.445 0.252-0.978 1.059-0.543 2.774-0.543 2.774l1.358-1.362c0.706-0.504 0.978-0.403 1.141-0.151 0.109 0.202 0.054 0.454-0.109 0.656-1.304 1.261-0.869 2.572-0.869 2.572l-1.847 1.513c-0.706 0.706 0.109 1.261 0.109 1.261 0.163-0.555 1.467-1.412 1.467-1.412-0.054 0.656 0.272 0.807 0.272 0.807 0.924-0.252 0.706-1.11 0.706-1.11 1.467-0.050 1.63-0.656 1.63-0.656 1.467 0.252 2.173-0.656 2.173-0.656 0.38 0.656 3.694 1.362 3.694 1.362 0.217 0.101 1.467 2.421 1.467 2.421 0.272 0.050 0.543 0.403 0.543 0.403 0.598 0.353 1.847-0.050 1.847-0.050-0.109-0.454-0.761-0.454-0.761-0.454-1.467 0-1.25-2.27-1.25-2.27 0.054-0.303 1.195 0.252 1.195 0.252l2.499 0.857c1.25 0.605 1.793-0.101 1.793-0.101 0.38-0.555-1.521-0.857-1.521-0.857z"></path>
<path d="M18.215 11.014c1.241 2.511 3.885 7.484 7.283 11.521 0.162-0.049 0.378-0.049 0.593-0.098-0.054-0.049-0.108-0.098-0.162-0.197-3.399-3.988-6.043-8.961-7.23-11.423-0.216 0.148-0.432 0.197-0.486 0.197z"></path>
<path d="M18.48 10.434c0.543-0.2 0.869-0.748 0.652-1.247s-0.814-0.798-1.357-0.599l-2.932 0.948c-3.421-2.944-3.584-3.443-4.941-3.642-1.738-0.249-3.367 0.898-3.638 2.495l-1.303 8.382c-0.271 1.597 0.977 3.093 2.715 3.343 0.054 0 0.109 0 0.163 0l1.412 3.892-2.878 3.892c-0.489 0.649-0.326 1.597 0.434 2.046 0.706 0.449 1.738 0.299 2.226-0.399l3.366-4.49c0.271-0.399 0.38-0.848 0.217-1.297l-1.792-4.939c0.271-0.349 0.489-0.798 0.543-1.247l1.195-7.434 1.357 1.197c0.271 0.249 0.706 0.349 1.086 0.2l3.475-1.098z"></path>
</symbol>
<symbol id="icon-burger" viewBox="0 0 46 32">
<path d="M45.714 29.726c0 1.257-1.019 2.274-2.274 2.274h-18.309c-0.603 0-1.182-0.24-1.608-0.666s-0.666-1.005-0.666-1.608c0-0.603 0.24-1.182 0.666-1.608s1.005-0.666 1.608-0.666h18.309c1.257 0 2.274 1.017 2.274 2.274zM45.714 16c0 1.257-1.019 2.274-2.274 2.274h-41.166c-0.603 0-1.182-0.24-1.608-0.666s-0.666-1.005-0.666-1.608c0-0.603 0.24-1.182 0.666-1.608s1.005-0.666 1.608-0.666h41.166c1.257 0 2.274 1.019 2.274 2.274zM43.44 4.549c0.603 0 1.182-0.24 1.608-0.666s0.666-1.005 0.666-1.608c0-0.603-0.24-1.182-0.666-1.608s-1.005-0.666-1.608-0.666h-27.451c-0.299 0-0.594 0.059-0.87 0.173s-0.527 0.282-0.738 0.493c-0.211 0.211-0.379 0.462-0.493 0.738s-0.173 0.572-0.173 0.87c0 0.299 0.059 0.594 0.173 0.87s0.282 0.527 0.493 0.738c0.211 0.211 0.462 0.379 0.738 0.493s0.572 0.173 0.87 0.173h27.451z"></path>
</symbol>

<symbol id="icon-video" viewBox="0 0 42 32">
<path fill="#839aa9" d="M0.098 13.567c0 0-1.927-7.847 11.323-12.616s38.908 9.434 27.705 19.715c-11.203 10.281-17.346 14.203-27.705 9.116s-11.323-16.214-11.323-16.214z"></path>
<path fill="currentColor" d="M23.73 12.203c-0.007 0.077-0.054 0.161-0.162 0.246-1.055 0.837-2.11 1.674-3.165 2.511-0.225 0.179-0.76 0.22-0.76-0.2 0-1.549 0-3.098 0-4.646 0-0.38 0.574-0.474 0.803-0.319 1.055 0.712 2.11 1.424 3.165 2.135 0.121 0.082 0.147 0.179 0.118 0.273zM27.317 13.523c-0.334 8.016-13.842 6.355-12.377-2.083 0.615-3.541 3.555-5.403 6.785-5.178 3.636 0.253 5.525 3.56 5.591 7.208 0 0.009-0.006 0.017-0.007 0.026 0.001 0.010 0.008 0.016 0.007 0.027zM26.639 13.627c-0.055-2.582-0.97-5.371-3.333-6.481-3.131-1.471-6.821 0.264-7.617 3.839-0.712 3.198 0.871 6.033 3.767 7.058 3.087 1.093 7.014-0.627 7.183-4.417z"></path>
<path fill="currentColor" d="M12.545 24.396v0.319h-1.48v-0.319h1.48zM11.142 21.756v2.959h-0.392v-2.959h0.392zM13.85 24.756c-0.153 0-0.292-0.026-0.417-0.077-0.123-0.053-0.23-0.127-0.319-0.222-0.088-0.095-0.156-0.207-0.203-0.337s-0.071-0.272-0.071-0.427v-0.085c0-0.179 0.026-0.338 0.079-0.478 0.053-0.141 0.125-0.26 0.215-0.358s0.194-0.171 0.309-0.222c0.115-0.050 0.234-0.075 0.358-0.075 0.157 0 0.293 0.027 0.406 0.081 0.115 0.054 0.209 0.13 0.283 0.228 0.073 0.096 0.127 0.21 0.163 0.341 0.035 0.13 0.053 0.272 0.053 0.427v0.169h-1.642v-0.307h1.266v-0.028c-0.005-0.098-0.026-0.192-0.061-0.285-0.034-0.092-0.088-0.168-0.163-0.228s-0.176-0.089-0.305-0.089c-0.085 0-0.164 0.018-0.236 0.055-0.072 0.035-0.133 0.088-0.185 0.159s-0.091 0.157-0.12 0.258c-0.028 0.102-0.043 0.219-0.043 0.352v0.085c0 0.104 0.014 0.203 0.043 0.295 0.030 0.091 0.072 0.171 0.128 0.24 0.057 0.069 0.125 0.123 0.205 0.163 0.081 0.039 0.173 0.059 0.276 0.059 0.133 0 0.245-0.027 0.337-0.081s0.173-0.127 0.242-0.218l0.228 0.181c-0.047 0.072-0.108 0.14-0.181 0.205s-0.163 0.118-0.27 0.159c-0.106 0.041-0.231 0.061-0.376 0.061zM16.441 24.339v-1.132c0-0.087-0.018-0.162-0.053-0.226-0.034-0.065-0.085-0.115-0.154-0.15s-0.154-0.053-0.256-0.053c-0.095 0-0.178 0.016-0.25 0.049-0.070 0.033-0.126 0.075-0.167 0.128-0.039 0.053-0.059 0.11-0.059 0.171h-0.376c0-0.079 0.020-0.157 0.061-0.234s0.099-0.147 0.175-0.209c0.077-0.064 0.169-0.114 0.276-0.15 0.108-0.038 0.229-0.057 0.362-0.057 0.16 0 0.301 0.027 0.423 0.081 0.123 0.054 0.22 0.136 0.289 0.246 0.070 0.108 0.106 0.245 0.106 0.409v1.024c0 0.073 0.006 0.151 0.018 0.234 0.014 0.083 0.033 0.154 0.059 0.213v0.033h-0.392c-0.019-0.043-0.034-0.101-0.045-0.173-0.011-0.073-0.016-0.141-0.016-0.203zM16.506 23.382l0.004 0.264h-0.38c-0.107 0-0.203 0.009-0.287 0.026-0.084 0.016-0.154 0.041-0.211 0.075s-0.1 0.077-0.13 0.128c-0.030 0.050-0.045 0.109-0.045 0.177 0 0.069 0.016 0.132 0.047 0.189s0.078 0.102 0.14 0.136c0.064 0.033 0.142 0.049 0.234 0.049 0.115 0 0.217-0.024 0.305-0.073s0.158-0.108 0.209-0.179c0.053-0.070 0.081-0.139 0.085-0.205l0.161 0.181c-0.009 0.057-0.035 0.12-0.077 0.189s-0.098 0.136-0.169 0.199c-0.069 0.062-0.152 0.114-0.248 0.157-0.095 0.041-0.202 0.061-0.321 0.061-0.149 0-0.28-0.029-0.392-0.087-0.111-0.058-0.198-0.136-0.26-0.234-0.061-0.099-0.091-0.209-0.091-0.331 0-0.118 0.023-0.222 0.069-0.311 0.046-0.091 0.112-0.166 0.199-0.226 0.087-0.061 0.191-0.107 0.313-0.138s0.258-0.047 0.409-0.047h0.437zM17.785 22.862v1.854h-0.376v-2.199h0.366l0.010 0.346zM18.472 22.504l-0.002 0.35c-0.031-0.007-0.061-0.011-0.089-0.012-0.027-0.003-0.058-0.004-0.093-0.004-0.087 0-0.163 0.014-0.23 0.041s-0.123 0.065-0.169 0.114c-0.046 0.049-0.083 0.107-0.11 0.175-0.026 0.066-0.043 0.14-0.051 0.22l-0.106 0.061c0-0.133 0.013-0.257 0.039-0.374 0.027-0.117 0.068-0.22 0.124-0.309 0.056-0.091 0.126-0.161 0.211-0.211 0.087-0.052 0.19-0.077 0.309-0.077 0.027 0 0.058 0.003 0.093 0.010 0.035 0.005 0.060 0.012 0.073 0.018zM19.195 22.986v1.73h-0.376v-2.199h0.356l0.020 0.47zM19.106 23.532l-0.157-0.006c0.001-0.15 0.024-0.289 0.067-0.417 0.043-0.129 0.104-0.241 0.183-0.335s0.172-0.168 0.28-0.22c0.11-0.053 0.231-0.079 0.364-0.079 0.108 0 0.206 0.015 0.293 0.045 0.087 0.028 0.161 0.075 0.222 0.138 0.062 0.064 0.11 0.146 0.142 0.248 0.033 0.1 0.049 0.223 0.049 0.368v1.441h-0.378v-1.445c0-0.115-0.017-0.207-0.051-0.276-0.034-0.070-0.083-0.121-0.148-0.152-0.065-0.033-0.145-0.049-0.24-0.049-0.093 0-0.179 0.020-0.256 0.059-0.076 0.039-0.142 0.093-0.197 0.163-0.054 0.069-0.097 0.148-0.128 0.238-0.030 0.088-0.045 0.182-0.045 0.28zM22.526 22.953v1.762h-0.378v-2.199h0.358l0.020 0.437zM22.449 23.532l-0.175-0.006c0.001-0.15 0.021-0.289 0.059-0.417 0.038-0.129 0.094-0.241 0.169-0.335s0.167-0.168 0.278-0.22c0.111-0.053 0.24-0.079 0.386-0.079 0.103 0 0.198 0.015 0.285 0.045 0.087 0.028 0.162 0.074 0.226 0.136s0.113 0.142 0.148 0.24c0.035 0.098 0.053 0.215 0.053 0.354v1.465h-0.376v-1.447c0-0.115-0.020-0.207-0.059-0.276-0.038-0.069-0.092-0.119-0.163-0.15-0.070-0.033-0.153-0.049-0.248-0.049-0.111 0-0.204 0.020-0.278 0.059s-0.134 0.093-0.179 0.163c-0.045 0.069-0.077 0.148-0.098 0.238-0.019 0.088-0.028 0.182-0.028 0.28zM23.874 23.325l-0.252 0.077c0.001-0.121 0.021-0.236 0.059-0.348 0.039-0.111 0.096-0.21 0.169-0.297 0.075-0.087 0.166-0.155 0.274-0.205 0.108-0.052 0.232-0.077 0.372-0.077 0.118 0 0.222 0.016 0.313 0.047 0.092 0.031 0.169 0.079 0.232 0.144 0.064 0.064 0.112 0.146 0.144 0.246s0.049 0.22 0.049 0.358v1.445h-0.378v-1.449c0-0.123-0.020-0.219-0.059-0.287-0.038-0.069-0.092-0.117-0.163-0.144-0.069-0.028-0.152-0.043-0.248-0.043-0.083 0-0.156 0.014-0.22 0.043s-0.117 0.068-0.161 0.118c-0.043 0.049-0.077 0.105-0.1 0.169-0.022 0.064-0.033 0.131-0.033 0.203zM25.703 23.64v-0.047c0-0.159 0.023-0.306 0.069-0.441 0.046-0.137 0.112-0.255 0.199-0.356 0.087-0.102 0.192-0.18 0.315-0.236 0.123-0.057 0.261-0.085 0.415-0.085 0.155 0 0.293 0.028 0.417 0.085 0.125 0.056 0.23 0.134 0.317 0.236 0.088 0.1 0.155 0.219 0.201 0.356 0.046 0.136 0.069 0.282 0.069 0.441v0.047c0 0.159-0.023 0.306-0.069 0.441s-0.113 0.254-0.201 0.356c-0.087 0.1-0.192 0.179-0.315 0.236-0.122 0.056-0.26 0.083-0.415 0.083s-0.293-0.028-0.417-0.083c-0.123-0.057-0.229-0.136-0.317-0.236-0.087-0.102-0.153-0.22-0.199-0.356s-0.069-0.282-0.069-0.441zM26.079 23.593v0.047c0 0.11 0.013 0.213 0.039 0.311 0.026 0.096 0.064 0.182 0.116 0.256 0.053 0.075 0.119 0.133 0.197 0.177 0.079 0.042 0.17 0.063 0.274 0.063 0.103 0 0.193-0.021 0.271-0.063 0.079-0.043 0.144-0.102 0.195-0.177s0.090-0.16 0.116-0.256c0.027-0.098 0.041-0.201 0.041-0.311v-0.047c0-0.108-0.014-0.211-0.041-0.307-0.026-0.098-0.065-0.184-0.118-0.258-0.052-0.076-0.117-0.136-0.195-0.179-0.077-0.043-0.168-0.065-0.272-0.065-0.103 0-0.194 0.022-0.272 0.065-0.077 0.043-0.142 0.103-0.195 0.179-0.052 0.075-0.090 0.161-0.116 0.258-0.026 0.096-0.039 0.198-0.039 0.307zM28.553 22.862v1.854h-0.376v-2.199h0.366l0.010 0.346zM29.24 22.504l-0.002 0.35c-0.031-0.007-0.061-0.011-0.090-0.012-0.027-0.003-0.058-0.004-0.093-0.004-0.087 0-0.163 0.014-0.23 0.041s-0.123 0.065-0.169 0.114c-0.046 0.049-0.082 0.107-0.11 0.175-0.026 0.066-0.043 0.14-0.051 0.22l-0.106 0.061c0-0.133 0.013-0.257 0.038-0.374 0.027-0.117 0.068-0.22 0.124-0.309 0.056-0.091 0.126-0.161 0.211-0.211 0.087-0.052 0.19-0.077 0.309-0.077 0.027 0 0.058 0.003 0.093 0.010 0.035 0.005 0.060 0.012 0.073 0.018zM30.459 24.756c-0.153 0-0.292-0.026-0.417-0.077-0.123-0.053-0.23-0.127-0.319-0.222-0.088-0.095-0.156-0.207-0.203-0.337s-0.071-0.272-0.071-0.427v-0.085c0-0.179 0.027-0.338 0.079-0.478 0.053-0.141 0.125-0.26 0.215-0.358s0.194-0.171 0.309-0.222c0.115-0.050 0.234-0.075 0.358-0.075 0.157 0 0.293 0.027 0.406 0.081 0.115 0.054 0.209 0.13 0.283 0.228 0.073 0.096 0.127 0.21 0.163 0.341 0.035 0.13 0.053 0.272 0.053 0.427v0.169h-1.642v-0.307h1.266v-0.028c-0.005-0.098-0.026-0.192-0.061-0.285-0.034-0.092-0.088-0.168-0.163-0.228s-0.176-0.089-0.305-0.089c-0.086 0-0.164 0.018-0.236 0.055-0.072 0.035-0.133 0.088-0.185 0.159s-0.091 0.157-0.12 0.258c-0.028 0.102-0.043 0.219-0.043 0.352v0.085c0 0.104 0.014 0.203 0.043 0.295 0.030 0.091 0.073 0.171 0.128 0.24 0.057 0.069 0.125 0.123 0.205 0.163 0.081 0.039 0.173 0.059 0.276 0.059 0.133 0 0.245-0.027 0.337-0.081s0.173-0.127 0.242-0.218l0.228 0.181c-0.047 0.072-0.108 0.14-0.181 0.205s-0.163 0.118-0.27 0.159c-0.106 0.041-0.231 0.061-0.376 0.061z"></path>
</symbol>

<symbol id="icon-food" viewBox="0 0 48 32">
<path fill="#839aa9" style="fill: var(--color1, #839aa9)" d="M45.37 13.333c-0.052-1.992-2.005-3.973-5.918-5.333 0.267-0.547 0-0.726 0-1.333 0-2.356-2.048-4.667-4.603-4.667-0.576 0-0.778 0.473-1.315 0.667-0.86-0.97-2.435-1.333-3.945-1.333-0.684 0-1.354-0.232-1.973 0-1.076-0.891-2.414-1.333-3.945-1.333-2.063 0-4.235 1.21-5.26 2.667-2.426-0.265-4.432 0.263-5.26 2-2.034 0.036-3.69 1.536-3.945 3.333-4.239 1.378-6.52 3.252-6.575 5.333l-2.63 10v0.667c0 4.649 10.871 8 24.329 8s23.671-3.352 23.671-8l-2.63-10.667zM13.151 6c-0.034-0.002 0.034 0 0 0h0.658v-0.667c0.521-1.382 2.061-2 3.945-2 0.265 0 0.383-0.041 0.658 0h0.658c0.832-1.345 2.721-2.667 4.603-2.667 1.422 0 2.353 0.473 3.288 1.333l0.658 0.667v-0.667c0.578-0.252 1.308 0 1.973 0 1.378 0 2.617 0.424 3.288 1.333h0.658c0.52-0.227 0.747 0 1.315 0 2.090 0 3.945 1.449 3.945 3.333 0 0.618-0.308 0.805-0.658 1.333-0.001 0.001 0.001 0.665 0 0.667-0.027 0.040 0.028-0.039 0 0v0.667h0.658c1.651 0.228 2.63 1.13 2.63 2 0 0.523-0.316 0.431-0.658 0.667-0.055 0.038 0.048-0.029 0 0l-1.315 0.667 1.315 0.667c0.742 0.345 0.658 0.742 0.658 1.333 0 0.881-1.677 2-3.288 2-0.735 0.252-1.197 0.461-1.973 0.667-3.297 0.868-7.208 1.333-11.178 1.333-6.791 0-12.484-1.499-14.466-2-0.457-0.115-0.645 0.004-0.658 0-1.804 0-3.288-1.716-3.288-3.333s1.484-2.667 3.288-2.667c-0.109-0.010 0.113 0 0 0h0.658v-0.667c-0.212-0.39-0.658-0.908-0.658-1.333-0.002 0.025 0-0.025 0 0 0.168-1.438 1.617-2.667 3.288-2.667zM9.205 9.333c-0.003-0.018 0.002 0.018 0 0-0.004-0.028 0.004 0.028 0 0 0.025 0.147-0.044-0.143 0 0 0.001 0.002-0.001-0.002 0 0-2.144 0.129-3.945 1.996-3.945 4 0 2.069 2.361 3.971 4.603 4 0.103 0.029 0.304-0.089 0.658 0 2.025 0.512 7.59 2 14.466 2-0.001 0 0.001 0 0 0 4.966 0 9.224-0.664 13.151-2 1.944-0.027 4.603-1.159 4.603-2.667 0-0.185 0.048-0.49 0-0.667-0.143-0.529-0.799-0.962-1.315-1.333 0.512-0.46 0.658-0.755 0.658-1.333 0-0.041 0.003-0.625 0-0.667-0.002-0.035 0.004 0.033 0 0-0.005-0.040 0.008 0.039 0 0-0.008-0.038 0.010 0.038 0 0-0.002-0.009 0.002 0.009 0 0 1.58 0.945 2.63 1.619 2.63 2.667 0 3.18-8.721 6.667-21.041 6.667s-20.384-3.487-20.384-6.667c0-1.647 2.224-2.757 5.918-4zM23.671 31.333c-12.498 0-22.924-3.323-23.014-7.333l2.63-8.667c2.022 3.392 9.916 6 20.384 6s19.020-2.607 21.041-6l2.63 8.667c-0.090 4.010-11.173 7.333-23.671 7.333z"></path>
<path fill="#839aa9" style="fill: var(--color1, #839aa9)" d="M30.904 24c0-1.13-0.88-2-1.973-2-1.057 0-1.921 0.919-1.973 2h-6.575c-0.052-1.081-0.915-2-1.973-2-1.091 0-1.973 0.87-1.973 2 0 0.659 0.189 0.959 0.658 1.333-0.468 0.375-0.658 1.342-0.658 2 0 1.13 0.881 2 1.973 2 1.058 0 1.921-0.919 1.973-2h6.575c0.052 1.081 0.916 2 1.973 2 1.092 0 1.973-0.87 1.973-2 0-0.658-0.19-1.625-0.658-2 0.467-0.375 0.658-0.674 0.658-1.333zM30.247 27.333c0 0.658-0.679 1.333-1.315 1.333-0.635 0-1.315-0.675-1.315-1.333-0.016 0.079 0-0.079 0 0v-0.667h-7.89v0.667c0-0.079 0.016 0.079 0 0 0 0.658-0.679 1.333-1.315 1.333s-1.315-0.675-1.315-1.333c0-0.657 0.679-1.333 1.315-1.333v-0.667c-0.636 0-1.315-0.677-1.315-1.333 0-0.658 0.679-1.333 1.315-1.333s1.315 0.675 1.315 1.333c0 0.080 0.016-0.079 0 0v0.667h7.89v-0.667c-0.016-0.080 0 0.079 0 0 0-0.658 0.68-1.333 1.315-1.333 0.636 0 1.315 0.675 1.315 1.333 0 0.657-0.679 1.333-1.315 1.333v0.667c0.637-0.001 1.315 0.676 1.315 1.333z"></path>
</symbol>

<symbol id="icon-walk-vector" viewBox="0 0 29 32">
<path d="M1.419 8.302c2.253-3.024 4.926-5.603 6.888-6.821s5.334-1.959 7.599-1.11 5.526 5.867 6.162 6.191c0.636 0.323 3.971 3.881 5.622 5.575s2.037 7.073-0.207 10.469-6.601 0.983-14.539 6.441c-7.938 5.457-11.369 2.91-10.819-4.564s-4.379-11.25-0.705-16.182z"></path>
</symbol>

<symbol id="icon-walk-t" viewBox="0 0 35 32">
<path d="M16.323 15.79c-2.716 0.52-2.978 2.843-5.12 5.316-3.1 3.61-1.975 6.125 0.372 6.27 2.28 0.181 3.833-2.366 6.255-2.651 2.412-0.435 4.666 1.474 6.84 0.543 2.107-0.896 2.378-3.613-1.768-6.067-2.786-1.625-3.787-3.816-6.579-3.411z"></path>
<path d="M9.817 15.012c1.878 1.613 2.35 3.821 1.187 4.92s-3.716 0.642-5.528-1.006c-1.878-1.613-2.417-3.785-1.187-4.92s3.65-0.607 5.528 1.006z"></path>
<path d="M22.939 12.992c-1.306 2.037-1.095 4.153 0.406 4.761s3.731-0.588 4.933-2.644c1.306-2.037 1.095-4.154-0.406-4.761s-3.731 0.588-4.933 2.644z"></path>
<path d="M15.26 9.401c0.883 2.331 0.188 4.706-1.571 5.329s-3.958-0.843-4.841-3.174c-0.883-2.331-0.188-4.706 1.571-5.329s3.958 0.843 4.841 3.174z"></path>
<path d="M15.848 8.924c-0.107 2.405 1.218 4.27 2.982 4.233s3.255-1.972 3.362-4.377c0.107-2.405-1.218-4.27-2.982-4.233s-3.255 1.972-3.362 4.377z"></path>
</symbol>

<symbol id="icon-walk-l" viewBox="0 0 34 32">
<path d="M16.99 14.894c1.374-2.092 3.707-1.547 6.788-2.519 4.489-1.396 6.563 0.368 5.953 2.372-0.555 1.96-3.519 2.417-4.571 4.341-1.194 1.867-0.067 4.374-1.665 5.879-1.542 1.462-4.26 0.794-5.309-3.468-0.681-2.856-2.482-4.411-1.195-6.604z"></path>
<path d="M18.489 8.89c0.96 2.096 2.947 3.215 4.384 2.608s1.812-2.886 0.796-4.938c-0.96-2.096-2.891-3.259-4.384-2.608s-1.757 2.842-0.796 4.938z"></path>
<path d="M12.349 19.594c2.391-0.418 4.373 0.453 4.48 1.904s-1.764 2.916-4.14 3.242c-2.391 0.418-4.373-0.453-4.48-1.904s1.764-2.916 4.14-3.242z"></path>
<path d="M11.696 11.85c1.975 1.502 4.497 1.705 5.664 0.443s0.452-3.576-1.523-5.078-4.497-1.705-5.664-0.443c-1.167 1.262-0.452 3.576 1.523 5.078z"></path>
<path d="M11.029 12.393c2.363 0.702 3.745 2.419 3.144 3.877s-2.952 2.064-5.315 1.363c-2.363-0.702-3.745-2.419-3.144-3.877s2.952-2.065 5.315-1.363z"></path>
</symbol>

<symbol id="icon-walk-r" viewBox="0 0 34 32">
<path d="M16.991 15.096c-1.373-2.090-3.856-1.656-6.934-2.628-4.484-1.396-6.32 0.531-5.709 2.532 0.555 1.957 3.663 2.468 4.714 4.391 1.194 1.865-0.309 4.406 1.288 5.91 1.541 1.46 4.177 0.644 5.223-3.613 0.679-2.852 2.704-4.401 1.418-6.592z"></path>
<path d="M15.635 9.268c-0.958 2.093-3.069 3.383-4.504 2.776s-2.239-3.111-1.225-5.16c0.958-2.093 3.013-3.426 4.504-2.776s2.183 3.068 1.225 5.16z"></path>
<path d="M21.527 20.23c-2.389-0.419-4.101 0.158-4.208 1.607s1.431 2.653 3.805 2.979c2.389 0.419 4.101-0.158 4.208-1.607s-1.431-2.653-3.805-2.979z"></path>
<path d="M22.249 12.295c-1.972 1.5-4.733 1.544-5.899 0.283s-0.427-3.593 1.545-5.093c1.972-1.5 4.733-1.544 5.899-0.283s0.427 3.593-1.545 5.093z"></path>
<path d="M23.066 12.626c-2.36 0.7-4.196 2.731-3.595 4.187s2.883 2.005 5.243 1.304c2.36-0.7 4.196-2.731 3.595-4.187s-2.883-2.005-5.243-1.304z"></path>
</symbol>

<symbol id="icon-arrow-this" viewBox="0 0 40 32">
<path fill="#fa0" style="fill: var(--color1, #fa0)" d="M7.987 26.113c1.339-9.334 8.223-16.899 15.349-16.935 0.040 0.238 0.231 0.457 0.162 0.689-1.172 3.93 0.417 6.996 2.883 9.677 1.898 2.116 4.031 3.838 6.663 4.704 0.753 0.223 1.394 0.537 2.213 0.587 2.999 0.242 4.725-1.678 4.595-4.923-0.085-2.182-1.103-3.907-2.316-5.57-2.069-2.892-4.782-5.105-7.978-6.594-0.641-0.274-1.279-0.63-2.185-1.038 3.134-3.752 7.375-4.571 11.413-6.091-0.71-0.043-1.32-0.198-2.037-0.124-3.711 0.656-7.308 2.041-10.108 4.813-0.815 0.774-1.53 1.264-2.731 1.191-4.644-0.224-8.482 1.657-11.765 5.164-2.462 2.616-4.365 5.704-5.672 9.155-0.327 0.863-0.634 1.716-1.212 3.093-1.48-2.679-2.77-4.945-4.053-7.26-0.167 0.049-0.254 0.152-0.421 0.201-0.083 0.466-0.439 1.145-0.3 1.565 0.642 2.040 1.33 4.021 2.085 6.009 0.711 1.809 1.619 3.536 2.33 5.345 0.715 1.75 1.483 2.181 2.606 0.837 1.949-2.294 3.752-4.647 5.548-7.127 0.24-0.338 0.119-1.047 0.097-1.578-0.553 0.084-1.308 0.020-1.657 0.351-1.225 1.22-2.213 2.407-3.508 3.858zM25.591 9.089c5.289 1.323 9.32 4.271 11.683 9.535 0.478 1.147 0.829 2.561-0.207 3.381-0.691 0.546-1.972 0.676-2.893 0.502-3.512-0.803-6.093-3.143-8.21-6.156-1.457-2.148-1.917-4.413-0.373-7.262z"></path>
</symbol>
</defs>
</svg>
