<svg width="8" height="12" viewBox="0 0 8 12" fill="none" xmlns="http://www.w3.org/2000/svg">
<path d="M6.82922 11.3083C6.97506 11.1625 7.04797 10.9898 7.04797 10.7903C7.04797 10.5912 6.97506 10.4188 6.82922 10.2729L2.55631 6.00001L6.84381 1.71251C6.97992 1.5764 7.04797 1.40626 7.04797 1.20209C7.04797 0.997927 6.97506 0.822927 6.82922 0.677094C6.68339 0.53126 6.51072 0.458344 6.31122 0.458344C6.11211 0.458344 5.93964 0.53126 5.79381 0.677094L0.893806 5.59168C0.835473 5.65001 0.794056 5.7132 0.769556 5.78126C0.745445 5.84932 0.733389 5.92223 0.733389 6.00001C0.733389 6.07779 0.745445 6.1507 0.769556 6.21876C0.794056 6.28682 0.835473 6.35001 0.893806 6.40834L5.80839 11.3229C5.9445 11.459 6.11211 11.5271 6.31122 11.5271C6.51072 11.5271 6.68339 11.4542 6.82922 11.3083Z" fill="#181817"/>
</svg>
